<?xml version="1.0" encoding="UTF-8"?>
<!DOCTYPE svg PUBLIC "-//W3C//DTD SVG 1.1//EN" "http://www.w3.org/Graphics/SVG/1.1/DTD/svg11.dtd">
<!-- Creator: CorelDRAW X8 -->
<svg xmlns="http://www.w3.org/2000/svg" xml:space="preserve" width="16px" height="16px" version="1.1" style="shape-rendering:geometricPrecision; text-rendering:geometricPrecision; image-rendering:optimizeQuality; fill-rule:evenodd; clip-rule:evenodd"
viewBox="0 0 16 16"
 xmlns:xlink="http://www.w3.org/1999/xlink">
 <defs>
  <style type="text/css">
   <![CDATA[
    .fil0 {fill:#010002}
   ]]>
  </style>
 </defs>
 <g id="Слой_x0020_1">
  <metadata id="CorelCorpID_0Corel-Layer"/>
  <path class="fil0" d="M8 16c-1,0 -1,0 -2,0 -1,0 -1,-1 -2,-1 -1,0 -1,-1 -2,-1 0,-1 -1,-1 -1,-2 0,-1 -1,-1 -1,-2 0,-1 0,-1 0,-2 0,-1 0,-1 0,-2 0,-1 1,-1 1,-2 0,-1 1,-1 1,-2 1,0 1,-1 2,-1 1,0 1,-1 2,-1 1,0 1,0 2,0 1,0 2,0 3,1 1,0 2,1 3,1 0,1 1,2 1,3 1,1 1,2 1,3 0,1 0,1 0,2 0,1 -1,1 -1,2 0,1 -1,1 -1,2 -1,0 -1,1 -2,1 -1,0 -1,1 -2,1 -1,0 -1,0 -2,0zm4 -11l-8 0c0,0 0,0 0,0 0,0 0,0 0,0l0 1c0,0 0,0 0,0l4 2 0 0c0,0 0,0 0,0l4 -2c0,0 0,0 0,0 0,0 0,0 0,0 0,0 0,0 0,0l0 -1c0,0 0,0 0,0 0,0 0,0 0,0zm-6 3c0,0 0,0 0,0 0,0 0,0 0,0l-2 -1c0,0 0,0 0,0 0,0 0,0 0,0l0 3c0,0 0,0 0,0l0 0c0,0 0,0 0,0l2 -2zm3 0c0,0 0,0 0,0l-1 1c0,0 0,0 0,0l-1 -1c0,0 0,0 0,0l-3 3c0,0 0,0 0,0 0,0 0,0 0,0 0,0 0,0 0,0l8 0c0,0 0,0 0,0 0,0 0,0 0,0l-3 -3zm3 -1l0 0 -2 1c0,0 0,0 0,0 0,0 0,0 0,0l2 2c0,0 0,0 0,0l0 0c0,0 0,0 0,0l0 -3c0,0 0,0 0,0z"/>
 </g>
</svg>
