<?xml version="1.0" encoding="UTF-8"?>
<!DOCTYPE svg PUBLIC "-//W3C//DTD SVG 1.1//EN" "http://www.w3.org/Graphics/SVG/1.1/DTD/svg11.dtd">
<!-- Creator: CorelDRAW X8 -->
<svg xmlns="http://www.w3.org/2000/svg" xml:space="preserve" width="48px" height="48px" version="1.1" style="shape-rendering:geometricPrecision; text-rendering:geometricPrecision; image-rendering:optimizeQuality; fill-rule:evenodd; clip-rule:evenodd"
viewBox="0 0 48 48"
 xmlns:xlink="http://www.w3.org/1999/xlink">
 <defs>
  <style type="text/css">
   <![CDATA[
    .fil0 {fill:#010002}
   ]]>
  </style>
 </defs>
 <g id="Слой_x0020_1">
  <metadata id="CorelCorpID_0Corel-Layer"/>
  <g id="_2917842089120">
   <g>
    <path class="fil0" d="M24 0c-13,0 -24,11 -24,24 0,13 11,24 24,24 13,0 24,-11 24,-24 0,-13 -11,-24 -24,-24zm2 30c-2,0 -3,-1 -4,-1 -1,4 -2,7 -4,9 -1,-6 1,-10 2,-15 -2,-3 0,-8 3,-7 5,2 -3,10 2,12 6,1 8,-10 5,-14 -5,-5 -15,0 -14,7 0,2 2,3 1,5 -3,0 -4,-3 -4,-6 0,-6 5,-10 10,-10 6,-1 11,2 12,8 1,6 -3,13 -9,12z"/>
   </g>
  </g>
 </g>
</svg>
