<?xml version="1.0" encoding="UTF-8"?>
<!DOCTYPE svg PUBLIC "-//W3C//DTD SVG 1.1//EN" "http://www.w3.org/Graphics/SVG/1.1/DTD/svg11.dtd">
<!-- Creator: CorelDRAW X8 -->
<svg xmlns="http://www.w3.org/2000/svg" xml:space="preserve" width="48px" height="48px" version="1.1" style="shape-rendering:geometricPrecision; text-rendering:geometricPrecision; image-rendering:optimizeQuality; fill-rule:evenodd; clip-rule:evenodd"
viewBox="0 0 48 48"
 xmlns:xlink="http://www.w3.org/1999/xlink">
 <defs>
  <style type="text/css">
   <![CDATA[
    .fil0 {fill:black}
   ]]>
  </style>
 </defs>
 <g id="Слой_x0020_1">
  <metadata id="CorelCorpID_0Corel-Layer"/>
  <g id="_2917803073600">
   <path class="fil0" d="M24 0c-13,0 -24,11 -24,24 0,13 11,24 24,24 13,0 24,-11 24,-24 0,-13 -11,-24 -24,-24zm11 19c0,0 0,0 0,0 0,8 -6,16 -16,16 -3,0 -6,-1 -8,-3 0,1 0,1 1,1 2,0 5,-1 7,-3 -3,0 -5,-1 -5,-4 0,0 0,0 1,0 0,0 1,0 1,0 -2,0 -4,-2 -4,-5 0,0 0,0 0,0 0,0 1,0 2,0 -1,-1 -2,-2 -2,-4 0,-1 0,-2 0,-3 3,3 7,6 12,6 0,-1 0,-1 0,-1 0,-3 2,-6 5,-6 2,0 3,1 4,2 1,0 3,-1 4,-2 -1,2 -2,3 -3,4 1,-1 2,-1 3,-1 0,1 -1,2 -2,3z"/>
  </g>
 </g>
</svg>
