<?xml version="1.0" encoding="UTF-8"?>
<!DOCTYPE svg PUBLIC "-//W3C//DTD SVG 1.1//EN" "http://www.w3.org/Graphics/SVG/1.1/DTD/svg11.dtd">
<!-- Creator: CorelDRAW X8 -->
<svg xmlns="http://www.w3.org/2000/svg" xml:space="preserve" width="48px" height="48px" version="1.1" style="shape-rendering:geometricPrecision; text-rendering:geometricPrecision; image-rendering:optimizeQuality; fill-rule:evenodd; clip-rule:evenodd"
viewBox="0 0 48 48"
 xmlns:xlink="http://www.w3.org/1999/xlink">
 <defs>
  <style type="text/css">
   <![CDATA[
    .fil0 {fill:black}
   ]]>
  </style>
 </defs>
 <g id="Слой_x0020_1">
  <metadata id="CorelCorpID_0Corel-Layer"/>
  <g id="_2917810410608">
   <polygon class="fil0" points="13,26 15,26 15,36 16,36 16,26 18,26 18,24 13,24 "/>
   <path class="fil0" d="M28 27c-1,0 -1,0 -2,1l0 -4 -1 0 0 12 1 0 0 -1c1,1 1,1 2,1 0,0 1,0 1,-1 0,0 0,-1 0,-2l0 -3c0,-1 0,-2 0,-2 0,-1 -1,-1 -1,-1zm0 7c0,0 -1,1 -1,1 0,0 -1,0 -1,-1l0 -5c0,0 1,-1 1,-1 0,0 1,1 1,2l0 4z"/>
   <path class="fil0" d="M22 34c-1,0 -1,1 -2,1 0,0 0,0 0,-1 0,0 0,0 0,0l0 -7 -2 0 0 7c0,1 1,1 1,2 0,0 0,0 1,0 0,0 1,0 2,-1l0 1 1 0 0 -9 -1 0 0 7z"/>
   <path class="fil0" d="M23 19c0,0 1,-1 1,-1l0 -4c0,-1 -1,-1 -1,-1 -1,0 -1,0 -1,1l0 4c0,0 0,1 1,1z"/>
   <path class="fil0" d="M24 0c-13,0 -24,11 -24,24 0,13 11,24 24,24 13,0 24,-11 24,-24 0,-13 -11,-24 -24,-24zm3 11l1 0 0 7c0,0 0,0 0,1 0,0 0,0 1,0 0,0 0,0 1,-1l0 -7 1 0 0 9 -1 0 0 -1c-1,1 -2,1 -2,1 -1,0 -1,0 -1,0 0,-1 0,-1 0,-2l0 -7 0 0zm-7 3c0,-1 1,-2 1,-2 0,-1 1,-1 2,-1 1,0 1,0 2,1 0,0 0,1 0,2l0 3c0,1 0,2 0,2 -1,1 -1,1 -2,1 -1,0 -2,0 -2,-1 0,0 -1,-1 -1,-2l0 -3zm-4 -6l1 5 2 -5 1 0 -2 7 0 5 -2 0 0 -5c0,-1 0,-2 -1,-3 0,-2 0,-3 -1,-4l2 0zm21 29c0,1 -2,2 -3,2 -3,1 -7,1 -10,1 -3,0 -7,0 -10,-1 -1,0 -3,-1 -3,-2 0,-2 0,-4 0,-6 0,-3 0,-5 0,-7 0,-1 2,-2 3,-2 3,-1 7,-1 10,-1 3,0 7,0 10,1 1,0 3,1 3,2 0,2 0,4 0,7 0,2 0,4 0,6z"/>
   <path class="fil0" d="M33 27c-1,0 -1,0 -2,1 0,0 0,1 0,2l0 3c0,1 0,2 0,2 1,1 1,1 2,1 1,0 2,0 2,-1 0,0 0,0 0,-1 0,0 0,0 0,-1l0 0 -1 0c0,1 0,1 0,1 0,1 -1,1 -1,1 -1,0 -1,-1 -1,-2l0 -1 3 0 0 -2c0,-1 0,-2 0,-2 -1,-1 -1,-1 -2,-1zm1 4l-2 0 0 -1c0,-1 0,-2 1,-2 1,0 1,1 1,2l0 1z"/>
  </g>
 </g>
</svg>
